<svg viewBox="0 0 1024 1024" fill="none" xmlns="http://www.w3.org/2000/svg">
<rect width="1024" height="1024" rx="256" fill="white"/>
<path d="M650.411 458.402H500.478C499.415 446.073 496.579 434.889 491.971 424.85C487.541 414.811 481.338 406.181 473.362 398.96C465.565 391.563 456.083 385.927 444.918 382.052C433.752 378.001 421.081 375.976 406.903 375.976C382.091 375.976 361.09 381.964 343.899 393.94C326.885 405.917 313.947 423.089 305.086 445.457C296.402 467.825 292.06 494.684 292.06 526.034C292.06 559.145 296.491 586.885 305.352 609.252C314.391 631.444 327.417 648.176 344.43 659.448C361.444 670.544 381.914 676.092 405.839 676.092C419.486 676.092 431.714 674.418 442.525 671.072C453.336 667.55 462.729 662.53 470.704 656.013C478.679 649.497 485.148 641.659 490.11 632.501C495.25 623.166 498.706 612.687 500.478 601.063L650.411 602.119C648.639 625.016 642.17 648.352 631.005 672.129C619.84 695.729 603.978 717.569 583.42 737.647C563.039 757.549 537.784 773.576 507.656 785.729C477.527 797.882 442.525 803.958 402.649 803.958C352.671 803.958 307.833 793.302 268.135 771.991C228.613 750.68 197.333 719.33 174.293 677.941C151.431 636.552 140 585.916 140 526.034C140 465.799 151.697 415.075 175.091 373.862C198.485 332.473 230.031 301.211 269.73 280.076C309.428 258.765 353.735 248.109 402.649 248.109C437.031 248.109 468.666 252.777 497.554 262.111C526.442 271.446 551.785 285.096 573.584 303.06C595.383 320.849 612.928 342.776 626.22 368.843C639.512 394.909 647.576 424.762 650.411 458.402Z" fill="#5B21B6"/>
<line x1="500.053" y1="458.308" x2="696.187" y2="458.308" stroke="white"/>
<path d="M741.852 331.592C711.036 331.592 685.706 306.611 685.706 275.796C685.706 244.981 711.036 220 741.852 220C772.667 220 797.997 244.981 797.997 275.796C797.997 306.611 772.667 331.592 741.852 331.592Z" fill="#16A34A"/>
<path d="M943.974 361.35H500.801V458.064H695.438L695.438 750.436H792.757V458.064H943.974V361.35Z" fill="#5B21B6"/>
</svg>
