<?xml version="1.0" standalone="no"?>
<!DOCTYPE svg PUBLIC "-//W3C//DTD SVG 20010904//EN"
 "http://www.w3.org/TR/2001/REC-SVG-20010904/DTD/svg10.dtd">
<svg version="1.0" xmlns="http://www.w3.org/2000/svg"
 width="1024.000000pt" height="1024.000000pt" viewBox="0 0 1024.000000 1024.000000"
 preserveAspectRatio="xMidYMid meet">
<metadata>
Created by potrace 1.14, written by Peter Selinger 2001-2017
</metadata>
<g transform="translate(0.000000,1024.000000) scale(0.100000,-0.100000)"
fill="#000000" stroke="none">
<path d="M2415 10233 c-625 -40 -1187 -287 -1629 -713 -429 -414 -691 -944
-768 -1550 -19 -153 -19 -5544 0 -5700 71 -571 311 -1079 702 -1484 414 -429
944 -691 1550 -768 153 -19 5544 -19 5700 0 602 75 1137 340 1550 768 391 405
629 909 702 1484 19 153 19 5544 0 5700 -94 759 -499 1421 -1122 1835 -333
221 -662 346 -1090 413 -95 15 -361 16 -2825 17 -1496 1 -2742 0 -2770 -2z
m5176 -2222 c266 -84 433 -369 375 -641 -23 -109 -69 -193 -151 -275 -115
-116 -235 -166 -401 -166 -158 -1 -295 60 -406 180 -296 319 -127 827 307 921
63 14 203 4 276 -19z m-3101 -280 c334 -50 588 -128 850 -261 349 -178 642
-446 840 -768 l45 -72 1608 0 1607 0 0 -485 0 -485 -755 0 -755 0 0 -1465 0
-1465 -490 0 -490 0 0 1465 0 1465 -974 0 -974 0 -7 57 c-18 148 -94 332 -182
445 -178 226 -503 343 -860 310 -277 -27 -480 -119 -654 -299 -231 -237 -349
-580 -374 -1083 -8 -153 9 -435 35 -584 98 -570 390 -913 851 -1001 336 -63
676 3 890 175 134 107 239 278 282 460 l22 93 749 -6 c411 -3 750 -8 752 -10
8 -8 -29 -220 -57 -327 -161 -608 -604 -1142 -1184 -1425 -277 -135 -523 -207
-845 -247 -163 -20 -664 -17 -815 5 -591 88 -1051 302 -1427 665 -523 505
-778 1191 -778 2092 0 773 186 1370 580 1865 411 516 1018 828 1756 904 151
16 599 5 754 -18z"/>
</g>
</svg>
